<mxfile host="app.diagrams.net" modified="2020-11-19T10:51:01.421Z" agent="5.0 (Macintosh; Intel Mac OS X 10_15_6) AppleWebKit/537.36 (KHTML, like Gecko) Chrome/86.0.4240.198 Safari/537.36" etag="7RXb3dtwbFofCvgOV1is" version="13.10.0" type="github">
  <diagram id="dTv-93EM_RmVQyCPUept" name="Page-1">
    <mxGraphModel dx="1666" dy="826" grid="1" gridSize="10" guides="1" tooltips="1" connect="1" arrows="1" fold="1" page="1" pageScale="1" pageWidth="827" pageHeight="1169" math="0" shadow="0">
      <root>
        <mxCell id="0" />
        <mxCell id="1" parent="0" />
        <mxCell id="yKtU-O180s96aIhzvy2C-3" value="" style="html=1;points=[];perimeter=orthogonalPerimeter;" vertex="1" parent="1">
          <mxGeometry x="630" y="160" width="20" height="1480" as="geometry" />
        </mxCell>
        <mxCell id="yKtU-O180s96aIhzvy2C-4" value="" style="html=1;points=[];perimeter=orthogonalPerimeter;" vertex="1" parent="1">
          <mxGeometry x="1076" y="160" width="20" height="1480" as="geometry" />
        </mxCell>
        <mxCell id="yKtU-O180s96aIhzvy2C-8" value="&lt;h1&gt;设备&lt;/h1&gt;&lt;p&gt;&lt;br&gt;&lt;/p&gt;" style="text;html=1;strokeColor=none;fillColor=none;spacing=5;spacingTop=-20;whiteSpace=wrap;overflow=hidden;rounded=0;align=center;" vertex="1" parent="1">
          <mxGeometry x="270" y="100" width="120" height="40" as="geometry" />
        </mxCell>
        <mxCell id="yKtU-O180s96aIhzvy2C-9" value="&lt;h1&gt;手机&lt;/h1&gt;&lt;p&gt;&lt;br&gt;&lt;/p&gt;" style="text;html=1;strokeColor=none;fillColor=none;spacing=5;spacingTop=-20;whiteSpace=wrap;overflow=hidden;rounded=0;align=center;" vertex="1" parent="1">
          <mxGeometry x="580" y="100" width="120" height="40" as="geometry" />
        </mxCell>
        <mxCell id="yKtU-O180s96aIhzvy2C-10" value="&lt;h1&gt;云端&lt;/h1&gt;&lt;p&gt;&lt;br&gt;&lt;/p&gt;" style="text;html=1;strokeColor=none;fillColor=none;spacing=5;spacingTop=-20;whiteSpace=wrap;overflow=hidden;rounded=0;align=center;" vertex="1" parent="1">
          <mxGeometry x="1026" y="100" width="120" height="40" as="geometry" />
        </mxCell>
        <mxCell id="yKtU-O180s96aIhzvy2C-1" value="" style="html=1;points=[];perimeter=orthogonalPerimeter;" vertex="1" parent="1">
          <mxGeometry x="320" y="160" width="20" height="1480" as="geometry" />
        </mxCell>
        <mxCell id="yKtU-O180s96aIhzvy2C-12" value="连接建立完成，获取 PID、SN、MAC 地址" style="text;html=1;strokeColor=none;fillColor=none;align=left;verticalAlign=middle;whiteSpace=wrap;rounded=0;" vertex="1" parent="1">
          <mxGeometry x="374" y="210" width="216" height="20" as="geometry" />
        </mxCell>
        <mxCell id="yKtU-O180s96aIhzvy2C-13" value="" style="endArrow=classic;html=1;" edge="1" parent="1" target="yKtU-O180s96aIhzvy2C-14">
          <mxGeometry width="50" height="50" relative="1" as="geometry">
            <mxPoint x="650" y="241" as="sourcePoint" />
            <mxPoint x="720" y="244" as="targetPoint" />
          </mxGeometry>
        </mxCell>
        <mxCell id="yKtU-O180s96aIhzvy2C-14" value="网络" style="rhombus;whiteSpace=wrap;html=1;align=center;" vertex="1" parent="1">
          <mxGeometry x="760" y="200" width="80" height="80" as="geometry" />
        </mxCell>
        <mxCell id="yKtU-O180s96aIhzvy2C-15" value="" style="endArrow=classic;html=1;exitX=1;exitY=0.5;exitDx=0;exitDy=0;" edge="1" parent="1" source="yKtU-O180s96aIhzvy2C-14">
          <mxGeometry width="50" height="50" relative="1" as="geometry">
            <mxPoint x="510" y="410" as="sourcePoint" />
            <mxPoint x="1073" y="240" as="targetPoint" />
          </mxGeometry>
        </mxCell>
        <mxCell id="yKtU-O180s96aIhzvy2C-16" value="有" style="text;html=1;strokeColor=none;fillColor=none;align=center;verticalAlign=middle;whiteSpace=wrap;rounded=0;fontStyle=1" vertex="1" parent="1">
          <mxGeometry x="820" y="200" width="40" height="20" as="geometry" />
        </mxCell>
        <mxCell id="yKtU-O180s96aIhzvy2C-17" value="" style="edgeStyle=segmentEdgeStyle;endArrow=classic;html=1;exitX=0.5;exitY=1;exitDx=0;exitDy=0;" edge="1" parent="1" source="yKtU-O180s96aIhzvy2C-14">
          <mxGeometry width="50" height="50" relative="1" as="geometry">
            <mxPoint x="510" y="410" as="sourcePoint" />
            <mxPoint x="650" y="360" as="targetPoint" />
            <Array as="points">
              <mxPoint x="800" y="360" />
            </Array>
          </mxGeometry>
        </mxCell>
        <mxCell id="yKtU-O180s96aIhzvy2C-18" value="无" style="text;html=1;strokeColor=none;fillColor=none;align=center;verticalAlign=middle;whiteSpace=wrap;rounded=0;fontStyle=1" vertex="1" parent="1">
          <mxGeometry x="760" y="280" width="40" height="20" as="geometry" />
        </mxCell>
        <mxCell id="yKtU-O180s96aIhzvy2C-19" value="&lt;span style=&quot;color: rgb(50 , 50 , 50) ; font-size: 13px ; text-align: center ; background-color: rgba(255 , 255 , 255 , 0.01)&quot;&gt;上传 PID、SN、MAC地址，请求 Random&amp;nbsp;&lt;/span&gt;" style="text;html=1;strokeColor=none;fillColor=none;align=left;verticalAlign=middle;whiteSpace=wrap;rounded=0;" vertex="1" parent="1">
          <mxGeometry x="890" y="200" width="160" height="30" as="geometry" />
        </mxCell>
        <mxCell id="yKtU-O180s96aIhzvy2C-20" value="" style="endArrow=classic;html=1;exitX=0.05;exitY=0.338;exitDx=0;exitDy=0;exitPerimeter=0;" edge="1" parent="1" source="yKtU-O180s96aIhzvy2C-3" target="yKtU-O180s96aIhzvy2C-1">
          <mxGeometry width="50" height="50" relative="1" as="geometry">
            <mxPoint x="510" y="410" as="sourcePoint" />
            <mxPoint x="560" y="360" as="targetPoint" />
          </mxGeometry>
        </mxCell>
        <mxCell id="yKtU-O180s96aIhzvy2C-21" value="传送本地生成的 Random1 ，并告知蓝牙设备，无网络，进行本地校验" style="text;html=1;strokeColor=none;fillColor=none;align=left;verticalAlign=middle;whiteSpace=wrap;rounded=0;" vertex="1" parent="1">
          <mxGeometry x="374" y="320" width="216" height="30" as="geometry" />
        </mxCell>
        <mxCell id="yKtU-O180s96aIhzvy2C-23" value="生成一个本地 Random1" style="text;html=1;align=center;verticalAlign=middle;resizable=0;points=[];autosize=1;" vertex="1" parent="1">
          <mxGeometry x="650" y="330" width="140" height="20" as="geometry" />
        </mxCell>
        <mxCell id="yKtU-O180s96aIhzvy2C-24" value="" style="endArrow=classic;html=1;exitX=0;exitY=0.137;exitDx=0;exitDy=0;exitPerimeter=0;entryX=1;entryY=0.547;entryDx=0;entryDy=0;entryPerimeter=0;" edge="1" parent="1" source="yKtU-O180s96aIhzvy2C-1" target="yKtU-O180s96aIhzvy2C-25">
          <mxGeometry width="50" height="50" relative="1" as="geometry">
            <mxPoint x="321" y="349" as="sourcePoint" />
            <mxPoint x="249" y="349" as="targetPoint" />
          </mxGeometry>
        </mxCell>
        <mxCell id="yKtU-O180s96aIhzvy2C-25" value="1.偏移量 IV 为 Random1&lt;br&gt;2. 通过PID、SN、MAC 算出秘钥 Key1" style="whiteSpace=wrap;html=1;aspect=fixed;align=left;" vertex="1" parent="1">
          <mxGeometry x="100" y="280" width="150" height="150" as="geometry" />
        </mxCell>
        <mxCell id="yKtU-O180s96aIhzvy2C-28" value="" style="edgeStyle=segmentEdgeStyle;endArrow=classic;html=1;exitX=0.5;exitY=1;exitDx=0;exitDy=0;" edge="1" parent="1" source="yKtU-O180s96aIhzvy2C-25">
          <mxGeometry width="50" height="50" relative="1" as="geometry">
            <mxPoint x="140" y="600" as="sourcePoint" />
            <mxPoint x="319" y="519" as="targetPoint" />
            <Array as="points">
              <mxPoint x="175" y="520" />
              <mxPoint x="319" y="520" />
            </Array>
          </mxGeometry>
        </mxCell>
        <mxCell id="yKtU-O180s96aIhzvy2C-29" value="使用 AES 对本地握手校验命令进行加密" style="text;html=1;strokeColor=none;fillColor=none;align=left;verticalAlign=middle;whiteSpace=wrap;rounded=0;" vertex="1" parent="1">
          <mxGeometry x="180" y="470" width="130" height="30" as="geometry" />
        </mxCell>
        <mxCell id="yKtU-O180s96aIhzvy2C-31" value="" style="endArrow=classic;html=1;" edge="1" parent="1">
          <mxGeometry width="50" height="50" relative="1" as="geometry">
            <mxPoint x="340" y="520" as="sourcePoint" />
            <mxPoint x="626" y="520" as="targetPoint" />
          </mxGeometry>
        </mxCell>
        <mxCell id="yKtU-O180s96aIhzvy2C-32" value="传送已经加密的本地握手命令" style="text;html=1;strokeColor=none;fillColor=none;align=left;verticalAlign=middle;whiteSpace=wrap;rounded=0;" vertex="1" parent="1">
          <mxGeometry x="370" y="470" width="210" height="30" as="geometry" />
        </mxCell>
        <mxCell id="yKtU-O180s96aIhzvy2C-38" value="" style="edgeStyle=orthogonalEdgeStyle;rounded=0;orthogonalLoop=1;jettySize=auto;html=1;" edge="1" parent="1" source="yKtU-O180s96aIhzvy2C-34" target="yKtU-O180s96aIhzvy2C-37">
          <mxGeometry relative="1" as="geometry" />
        </mxCell>
        <mxCell id="yKtU-O180s96aIhzvy2C-34" value="&lt;span&gt;1.偏移量 IV 为 Random1&lt;/span&gt;&lt;br&gt;&lt;span&gt;2. 通过PID、SN、MAC 算出秘钥 Key1&lt;br&gt;3.对本地握手命令进行解密匹对&lt;br&gt;&lt;/span&gt;" style="whiteSpace=wrap;html=1;aspect=fixed;align=left;" vertex="1" parent="1">
          <mxGeometry x="780" y="450" width="140" height="140" as="geometry" />
        </mxCell>
        <mxCell id="yKtU-O180s96aIhzvy2C-35" value="" style="endArrow=classic;html=1;" edge="1" parent="1" target="yKtU-O180s96aIhzvy2C-34">
          <mxGeometry width="50" height="50" relative="1" as="geometry">
            <mxPoint x="650" y="520" as="sourcePoint" />
            <mxPoint x="700" y="470" as="targetPoint" />
          </mxGeometry>
        </mxCell>
        <mxCell id="yKtU-O180s96aIhzvy2C-36" value="" style="endArrow=classic;html=1;entryX=-0.2;entryY=0.056;entryDx=0;entryDy=0;entryPerimeter=0;" edge="1" parent="1" target="yKtU-O180s96aIhzvy2C-3">
          <mxGeometry width="50" height="50" relative="1" as="geometry">
            <mxPoint x="341" y="243" as="sourcePoint" />
            <mxPoint x="600" y="250" as="targetPoint" />
          </mxGeometry>
        </mxCell>
        <mxCell id="yKtU-O180s96aIhzvy2C-37" value="匹对结果" style="rhombus;whiteSpace=wrap;html=1;align=center;" vertex="1" parent="1">
          <mxGeometry x="800" y="620" width="100" height="80" as="geometry" />
        </mxCell>
        <mxCell id="yKtU-O180s96aIhzvy2C-39" value="" style="endArrow=classic;html=1;exitX=0;exitY=0.5;exitDx=0;exitDy=0;" edge="1" parent="1" source="yKtU-O180s96aIhzvy2C-37" target="yKtU-O180s96aIhzvy2C-3">
          <mxGeometry width="50" height="50" relative="1" as="geometry">
            <mxPoint x="710" y="660" as="sourcePoint" />
            <mxPoint x="760" y="610" as="targetPoint" />
          </mxGeometry>
        </mxCell>
        <mxCell id="yKtU-O180s96aIhzvy2C-40" value="匹对失败" style="text;html=1;align=center;verticalAlign=middle;resizable=0;points=[];autosize=1;" vertex="1" parent="1">
          <mxGeometry x="690" y="630" width="60" height="20" as="geometry" />
        </mxCell>
        <mxCell id="yKtU-O180s96aIhzvy2C-41" value="失败断开蓝牙" style="text;html=1;align=center;verticalAlign=middle;resizable=0;points=[];autosize=1;" vertex="1" parent="1">
          <mxGeometry x="437" y="630" width="90" height="20" as="geometry" />
        </mxCell>
        <mxCell id="yKtU-O180s96aIhzvy2C-42" value="" style="edgeStyle=segmentEdgeStyle;endArrow=classic;html=1;exitX=0.5;exitY=1;exitDx=0;exitDy=0;entryX=1.05;entryY=0.395;entryDx=0;entryDy=0;entryPerimeter=0;" edge="1" parent="1" source="yKtU-O180s96aIhzvy2C-37" target="yKtU-O180s96aIhzvy2C-3">
          <mxGeometry width="50" height="50" relative="1" as="geometry">
            <mxPoint x="740" y="800" as="sourcePoint" />
            <mxPoint x="720" y="750" as="targetPoint" />
            <Array as="points">
              <mxPoint x="850" y="745" />
            </Array>
          </mxGeometry>
        </mxCell>
        <mxCell id="yKtU-O180s96aIhzvy2C-43" value="匹对成功" style="text;html=1;align=center;verticalAlign=middle;resizable=0;points=[];autosize=1;" vertex="1" parent="1">
          <mxGeometry x="700" y="710" width="60" height="20" as="geometry" />
        </mxCell>
        <mxCell id="yKtU-O180s96aIhzvy2C-44" value="" style="endArrow=classic;html=1;entryX=0.95;entryY=0.393;entryDx=0;entryDy=0;entryPerimeter=0;" edge="1" parent="1" target="yKtU-O180s96aIhzvy2C-1">
          <mxGeometry width="50" height="50" relative="1" as="geometry">
            <mxPoint x="626" y="740" as="sourcePoint" />
            <mxPoint x="490" y="720" as="targetPoint" />
          </mxGeometry>
        </mxCell>
        <mxCell id="yKtU-O180s96aIhzvy2C-45" value="匹对成功" style="text;html=1;align=center;verticalAlign=middle;resizable=0;points=[];autosize=1;" vertex="1" parent="1">
          <mxGeometry x="452" y="710" width="60" height="20" as="geometry" />
        </mxCell>
        <mxCell id="yKtU-O180s96aIhzvy2C-46" value="" style="endArrow=classic;html=1;entryX=1.05;entryY=0.136;entryDx=0;entryDy=0;entryPerimeter=0;" edge="1" parent="1" target="yKtU-O180s96aIhzvy2C-1">
          <mxGeometry width="50" height="50" relative="1" as="geometry">
            <mxPoint x="626" y="361" as="sourcePoint" />
            <mxPoint x="580" y="370" as="targetPoint" />
          </mxGeometry>
        </mxCell>
        <mxCell id="yKtU-O180s96aIhzvy2C-47" value="" style="shape=flexArrow;endArrow=classic;html=1;fontColor=#000000;" edge="1" parent="1" target="yKtU-O180s96aIhzvy2C-3">
          <mxGeometry width="50" height="50" relative="1" as="geometry">
            <mxPoint x="1070" y="880" as="sourcePoint" />
            <mxPoint x="790" y="790" as="targetPoint" />
            <Array as="points">
              <mxPoint x="840" y="880" />
            </Array>
          </mxGeometry>
        </mxCell>
        <mxCell id="yKtU-O180s96aIhzvy2C-48" value="&lt;span style=&quot;color: rgb(50 , 50 , 50) ; font-size: 13px ; background-color: rgba(255 , 255 , 255 , 0.01)&quot;&gt;返回 Random2&lt;/span&gt;" style="text;html=1;align=center;verticalAlign=middle;resizable=0;points=[];autosize=1;" vertex="1" parent="1">
          <mxGeometry x="807" y="840" width="100" height="20" as="geometry" />
        </mxCell>
        <mxCell id="yKtU-O180s96aIhzvy2C-49" value="" style="shape=flexArrow;endArrow=classic;html=1;fontColor=#000000;exitX=-0.05;exitY=0.486;exitDx=0;exitDy=0;exitPerimeter=0;entryX=1;entryY=0.487;entryDx=0;entryDy=0;entryPerimeter=0;" edge="1" parent="1" source="yKtU-O180s96aIhzvy2C-3" target="yKtU-O180s96aIhzvy2C-1">
          <mxGeometry width="50" height="50" relative="1" as="geometry">
            <mxPoint x="450" y="920" as="sourcePoint" />
            <mxPoint x="500" y="870" as="targetPoint" />
            <Array as="points">
              <mxPoint x="460" y="880" />
            </Array>
          </mxGeometry>
        </mxCell>
        <mxCell id="yKtU-O180s96aIhzvy2C-50" value="&lt;span style=&quot;color: rgb(50 , 50 , 50) ; font-size: 13px ; background-color: rgba(255 , 255 , 255 , 0.01)&quot;&gt;传送 Random2 到设备&lt;/span&gt;" style="text;html=1;align=center;verticalAlign=middle;resizable=0;points=[];autosize=1;" vertex="1" parent="1">
          <mxGeometry x="405" y="840" width="140" height="20" as="geometry" />
        </mxCell>
        <mxCell id="yKtU-O180s96aIhzvy2C-51" value="" style="shape=flexArrow;endArrow=classic;html=1;fontColor=#000000;exitX=0.05;exitY=0.487;exitDx=0;exitDy=0;exitPerimeter=0;" edge="1" parent="1" source="yKtU-O180s96aIhzvy2C-1">
          <mxGeometry width="50" height="50" relative="1" as="geometry">
            <mxPoint x="210" y="890" as="sourcePoint" />
            <mxPoint x="240" y="883" as="targetPoint" />
          </mxGeometry>
        </mxCell>
        <mxCell id="yKtU-O180s96aIhzvy2C-52" value="&lt;div style=&quot;resize: none ; outline: none ; font-size: 13px ; color: rgb(50 , 50 , 50) ; background-color: rgba(255 , 255 , 255 , 0.01)&quot;&gt;1.使用 AES 对 DeviceID 进行加密，Random (倒序）为秘钥，Random（正序）为偏移量，加密后密文为Cipher&lt;/div&gt;&lt;div style=&quot;resize: none ; outline: none ; font-size: 13px ; color: rgb(50 , 50 , 50) ; background-color: rgba(255 , 255 , 255 , 0.01)&quot;&gt;&lt;br&gt;&lt;/div&gt;&lt;span style=&quot;color: rgb(50 , 50 , 50) ; font-size: 13px ; background-color: rgba(255 , 255 , 255 , 0.01)&quot;&gt;2.使用 AES 对 DeviceID 进行加密，Random (正序）为秘钥，Random（倒叙）为偏移量，加密后秘钥Key，Key 是手机与蓝牙设备通讯的 AES 加密算法的秘钥&lt;/span&gt;" style="whiteSpace=wrap;html=1;aspect=fixed;fontColor=#000000;align=left;" vertex="1" parent="1">
          <mxGeometry x="50" y="790" width="190" height="190" as="geometry" />
        </mxCell>
        <mxCell id="yKtU-O180s96aIhzvy2C-58" value="" style="shape=flexArrow;endArrow=classic;html=1;fontColor=#000000;exitX=0.437;exitY=1.021;exitDx=0;exitDy=0;exitPerimeter=0;" edge="1" parent="1" source="yKtU-O180s96aIhzvy2C-52" target="yKtU-O180s96aIhzvy2C-1">
          <mxGeometry width="50" height="50" relative="1" as="geometry">
            <mxPoint x="110" y="1057" as="sourcePoint" />
            <mxPoint x="260" y="1010" as="targetPoint" />
            <Array as="points">
              <mxPoint x="133" y="1057" />
            </Array>
          </mxGeometry>
        </mxCell>
        <mxCell id="yKtU-O180s96aIhzvy2C-59" value="" style="shape=flexArrow;endArrow=classic;html=1;fontColor=#000000;" edge="1" parent="1" source="yKtU-O180s96aIhzvy2C-1">
          <mxGeometry width="50" height="50" relative="1" as="geometry">
            <mxPoint x="350" y="1060" as="sourcePoint" />
            <mxPoint x="625" y="1060" as="targetPoint" />
          </mxGeometry>
        </mxCell>
        <mxCell id="yKtU-O180s96aIhzvy2C-60" value="&lt;span style=&quot;color: rgb(50 , 50 , 50) ; font-size: 13px ; background-color: rgba(255 , 255 , 255 , 0.01)&quot;&gt;传送 Cipher&amp;nbsp;&lt;/span&gt;" style="text;html=1;align=center;verticalAlign=middle;resizable=0;points=[];autosize=1;" vertex="1" parent="1">
          <mxGeometry x="430" y="1020" width="90" height="20" as="geometry" />
        </mxCell>
        <mxCell id="yKtU-O180s96aIhzvy2C-61" value="" style="shape=flexArrow;endArrow=classic;html=1;fontColor=#000000;" edge="1" parent="1" target="yKtU-O180s96aIhzvy2C-4">
          <mxGeometry width="50" height="50" relative="1" as="geometry">
            <mxPoint x="650" y="1059.9999999999998" as="sourcePoint" />
            <mxPoint x="935" y="1059.9999999999998" as="targetPoint" />
          </mxGeometry>
        </mxCell>
        <mxCell id="yKtU-O180s96aIhzvy2C-62" value="&lt;span style=&quot;color: rgb(50 , 50 , 50) ; font-size: 13px ; background-color: rgba(255 , 255 , 255 , 0.01)&quot;&gt;上传 PID、SN、MAC 地址、Cipher 进行校验&lt;/span&gt;" style="text;html=1;align=center;verticalAlign=middle;resizable=0;points=[];autosize=1;" vertex="1" parent="1">
          <mxGeometry x="710" y="1020" width="280" height="20" as="geometry" />
        </mxCell>
        <mxCell id="yKtU-O180s96aIhzvy2C-63" value="" style="shape=flexArrow;endArrow=classic;html=1;fontColor=#000000;entryX=0;entryY=0.5;entryDx=0;entryDy=0;" edge="1" parent="1" target="yKtU-O180s96aIhzvy2C-64">
          <mxGeometry width="50" height="50" relative="1" as="geometry">
            <mxPoint x="1096" y="1059.5" as="sourcePoint" />
            <mxPoint x="1176" y="1059.5" as="targetPoint" />
          </mxGeometry>
        </mxCell>
        <mxCell id="yKtU-O180s96aIhzvy2C-64" value="&lt;span style=&quot;color: rgb(50 , 50 , 50) ; font-size: 13px ; background-color: rgba(255 , 255 , 255 , 0.01)&quot;&gt;1.校验 Cipher 是否正确&lt;/span&gt;&lt;div style=&quot;resize: none ; outline: none ; font-size: 13px ; color: rgb(50 , 50 , 50) ; background-color: rgba(255 , 255 , 255 , 0.01)&quot;&gt;2.校验通过后.使用 AES 对 DeviceID 进行行加密，Random (正序）为秘钥，Random（倒序）为偏移量，加密后密文为Key，Key 是手机与蓝牙设备通讯的 AES 加密算法的秘钥&lt;/div&gt;" style="whiteSpace=wrap;html=1;aspect=fixed;fontColor=#000000;align=left;" vertex="1" parent="1">
          <mxGeometry x="1210" y="970" width="180" height="180" as="geometry" />
        </mxCell>
        <mxCell id="yKtU-O180s96aIhzvy2C-65" value="" style="shape=flexArrow;endArrow=classic;html=1;fontColor=#000000;" edge="1" parent="1">
          <mxGeometry width="50" height="50" relative="1" as="geometry">
            <mxPoint x="1310" y="1150" as="sourcePoint" />
            <mxPoint x="1310" y="1210" as="targetPoint" />
          </mxGeometry>
        </mxCell>
        <mxCell id="yKtU-O180s96aIhzvy2C-66" value="校验结果" style="rhombus;whiteSpace=wrap;html=1;fontColor=#000000;align=center;" vertex="1" parent="1">
          <mxGeometry x="1250" y="1210" width="120" height="80" as="geometry" />
        </mxCell>
        <mxCell id="yKtU-O180s96aIhzvy2C-67" value="" style="shape=flexArrow;endArrow=classic;html=1;fontColor=#000000;exitX=0;exitY=0.5;exitDx=0;exitDy=0;" edge="1" parent="1" source="yKtU-O180s96aIhzvy2C-66">
          <mxGeometry width="50" height="50" relative="1" as="geometry">
            <mxPoint x="1240" y="1270" as="sourcePoint" />
            <mxPoint x="1100" y="1250" as="targetPoint" />
          </mxGeometry>
        </mxCell>
        <mxCell id="yKtU-O180s96aIhzvy2C-68" value="&lt;span style=&quot;color: rgb(50 , 50 , 50) ; font-size: 13px ; background-color: rgba(255 , 255 , 255 , 0.01)&quot;&gt;失败&lt;/span&gt;" style="text;html=1;align=center;verticalAlign=middle;resizable=0;points=[];autosize=1;" vertex="1" parent="1">
          <mxGeometry x="1165" y="1220" width="40" height="20" as="geometry" />
        </mxCell>
        <mxCell id="yKtU-O180s96aIhzvy2C-69" value="&lt;span style=&quot;color: rgb(50 , 50 , 50) ; font-size: 13px ; background-color: rgba(255 , 255 , 255 , 0.01)&quot;&gt;成功&lt;/span&gt;" style="text;html=1;align=center;verticalAlign=middle;resizable=0;points=[];autosize=1;" vertex="1" parent="1">
          <mxGeometry x="1190" y="1320" width="40" height="20" as="geometry" />
        </mxCell>
        <mxCell id="yKtU-O180s96aIhzvy2C-70" value="" style="shape=flexArrow;endArrow=classic;html=1;fontColor=#000000;exitX=0.5;exitY=1;exitDx=0;exitDy=0;" edge="1" parent="1" source="yKtU-O180s96aIhzvy2C-66">
          <mxGeometry width="50" height="50" relative="1" as="geometry">
            <mxPoint x="1230" y="1410" as="sourcePoint" />
            <mxPoint x="1100" y="1350" as="targetPoint" />
            <Array as="points">
              <mxPoint x="1310" y="1350" />
            </Array>
          </mxGeometry>
        </mxCell>
        <mxCell id="yKtU-O180s96aIhzvy2C-71" value="" style="shape=flexArrow;endArrow=classic;html=1;fontColor=#000000;" edge="1" parent="1">
          <mxGeometry width="50" height="50" relative="1" as="geometry">
            <mxPoint x="1067" y="1250" as="sourcePoint" />
            <mxPoint x="650" y="1250" as="targetPoint" />
          </mxGeometry>
        </mxCell>
        <mxCell id="yKtU-O180s96aIhzvy2C-72" value="&lt;span style=&quot;color: rgb(50 , 50 , 50) ; font-size: 13px ; text-align: center ; background-color: rgba(255 , 255 , 255 , 0.01)&quot;&gt;通知手机校验失败，断开蓝牙设备&lt;/span&gt;" style="text;html=1;align=left;verticalAlign=middle;resizable=0;points=[];autosize=1;" vertex="1" parent="1">
          <mxGeometry x="752" y="1210" width="210" height="20" as="geometry" />
        </mxCell>
        <mxCell id="yKtU-O180s96aIhzvy2C-73" value="" style="shape=flexArrow;endArrow=classic;html=1;fontColor=#000000;entryX=1.15;entryY=0.874;entryDx=0;entryDy=0;entryPerimeter=0;" edge="1" parent="1">
          <mxGeometry width="50" height="50" relative="1" as="geometry">
            <mxPoint x="1076" y="1350.02" as="sourcePoint" />
            <mxPoint x="659" y="1350" as="targetPoint" />
          </mxGeometry>
        </mxCell>
        <mxCell id="yKtU-O180s96aIhzvy2C-74" value="&lt;span style=&quot;color: rgb(50 , 50 , 50) ; font-size: 13px ; background-color: rgba(255 , 255 , 255 , 0.01)&quot;&gt;1.通知手机校验成功&lt;/span&gt;&lt;div style=&quot;resize: none ; outline: none ; font-size: 13px ; color: rgb(50 , 50 , 50) ; background-color: rgba(255 , 255 , 255 , 0.01)&quot;&gt;2.返回用于设备和手机加密数据的秘钥 Key&lt;/div&gt;" style="text;html=1;align=left;verticalAlign=middle;resizable=0;points=[];autosize=1;" vertex="1" parent="1">
          <mxGeometry x="750" y="1300" width="260" height="30" as="geometry" />
        </mxCell>
        <mxCell id="yKtU-O180s96aIhzvy2C-75" value="" style="shape=flexArrow;endArrow=classic;html=1;fontColor=#000000;entryX=1;entryY=0.809;entryDx=0;entryDy=0;entryPerimeter=0;" edge="1" parent="1" target="yKtU-O180s96aIhzvy2C-1">
          <mxGeometry width="50" height="50" relative="1" as="geometry">
            <mxPoint x="626" y="1357" as="sourcePoint" />
            <mxPoint x="370" y="1450" as="targetPoint" />
          </mxGeometry>
        </mxCell>
        <mxCell id="yKtU-O180s96aIhzvy2C-78" value="&lt;span style=&quot;color: rgb(50, 50, 50); font-size: 13px; background-color: rgba(255, 255, 255, 0.01);&quot;&gt;1.发送一条经 AES 加密后的数据告知设备校验成功，秘钥 Key，偏移量为 Random&lt;/span&gt;" style="text;html=1;strokeColor=none;fillColor=none;align=left;verticalAlign=middle;whiteSpace=wrap;rounded=0;fontColor=#000000;" vertex="1" parent="1">
          <mxGeometry x="390" y="1290" width="203" height="60" as="geometry" />
        </mxCell>
        <mxCell id="yKtU-O180s96aIhzvy2C-79" style="edgeStyle=orthogonalEdgeStyle;rounded=0;orthogonalLoop=1;jettySize=auto;html=1;exitX=0.5;exitY=1;exitDx=0;exitDy=0;fontColor=#000000;" edge="1" parent="1" source="yKtU-O180s96aIhzvy2C-66" target="yKtU-O180s96aIhzvy2C-66">
          <mxGeometry relative="1" as="geometry" />
        </mxCell>
        <mxCell id="yKtU-O180s96aIhzvy2C-81" value="" style="shape=flexArrow;endArrow=classic;html=1;fontColor=#000000;exitX=1.05;exitY=0.957;exitDx=0;exitDy=0;exitPerimeter=0;entryX=-0.25;entryY=0.958;entryDx=0;entryDy=0;entryPerimeter=0;" edge="1" parent="1" source="yKtU-O180s96aIhzvy2C-1" target="yKtU-O180s96aIhzvy2C-3">
          <mxGeometry width="50" height="50" relative="1" as="geometry">
            <mxPoint x="470" y="1600" as="sourcePoint" />
            <mxPoint x="520" y="1550" as="targetPoint" />
          </mxGeometry>
        </mxCell>
        <mxCell id="yKtU-O180s96aIhzvy2C-82" value="" style="shape=flexArrow;endArrow=classic;html=1;fontColor=#000000;exitX=-0.25;exitY=0.807;exitDx=0;exitDy=0;exitPerimeter=0;" edge="1" parent="1" source="yKtU-O180s96aIhzvy2C-1">
          <mxGeometry width="50" height="50" relative="1" as="geometry">
            <mxPoint x="220" y="1345" as="sourcePoint" />
            <mxPoint x="250" y="1354" as="targetPoint" />
          </mxGeometry>
        </mxCell>
        <mxCell id="yKtU-O180s96aIhzvy2C-83" value="&lt;span style=&quot;color: rgb(50 , 50 , 50) ; font-size: 13px ; background-color: rgba(255 , 255 , 255 , 0.01)&quot;&gt;1.设备收到校验成功命令，使用 AES 解密，秘钥为 Key，偏移量 IV 为 Random&lt;/span&gt;" style="whiteSpace=wrap;html=1;aspect=fixed;fontColor=#000000;align=left;" vertex="1" parent="1">
          <mxGeometry x="110" y="1280" width="130" height="130" as="geometry" />
        </mxCell>
        <mxCell id="yKtU-O180s96aIhzvy2C-84" value="" style="shape=flexArrow;endArrow=classic;html=1;fontColor=#000000;" edge="1" parent="1">
          <mxGeometry width="50" height="50" relative="1" as="geometry">
            <mxPoint x="170" y="1410" as="sourcePoint" />
            <mxPoint x="170" y="1460" as="targetPoint" />
          </mxGeometry>
        </mxCell>
        <mxCell id="yKtU-O180s96aIhzvy2C-85" value="解密配对" style="rhombus;whiteSpace=wrap;html=1;fontColor=#000000;align=center;" vertex="1" parent="1">
          <mxGeometry x="130" y="1460" width="80" height="80" as="geometry" />
        </mxCell>
        <mxCell id="yKtU-O180s96aIhzvy2C-86" value="" style="shape=flexArrow;endArrow=classic;html=1;fontColor=#000000;exitX=1;exitY=0.5;exitDx=0;exitDy=0;entryX=-0.15;entryY=0.905;entryDx=0;entryDy=0;entryPerimeter=0;" edge="1" parent="1" source="yKtU-O180s96aIhzvy2C-85" target="yKtU-O180s96aIhzvy2C-1">
          <mxGeometry width="50" height="50" relative="1" as="geometry">
            <mxPoint x="240" y="1530" as="sourcePoint" />
            <mxPoint x="290" y="1480" as="targetPoint" />
          </mxGeometry>
        </mxCell>
        <mxCell id="yKtU-O180s96aIhzvy2C-87" value="&lt;span style=&quot;color: rgb(50 , 50 , 50) ; font-size: 13px ; background-color: rgba(255 , 255 , 255 , 0.01)&quot;&gt;失败&lt;/span&gt;" style="text;html=1;align=center;verticalAlign=middle;resizable=0;points=[];autosize=1;" vertex="1" parent="1">
          <mxGeometry x="230" y="1460" width="40" height="20" as="geometry" />
        </mxCell>
        <mxCell id="yKtU-O180s96aIhzvy2C-88" value="" style="shape=flexArrow;endArrow=classic;html=1;fontColor=#000000;entryX=-0.05;entryY=0.955;entryDx=0;entryDy=0;entryPerimeter=0;exitX=0.5;exitY=1;exitDx=0;exitDy=0;" edge="1" parent="1" source="yKtU-O180s96aIhzvy2C-85" target="yKtU-O180s96aIhzvy2C-1">
          <mxGeometry width="50" height="50" relative="1" as="geometry">
            <mxPoint x="220" y="1610" as="sourcePoint" />
            <mxPoint x="270" y="1560" as="targetPoint" />
            <Array as="points">
              <mxPoint x="170" y="1573" />
            </Array>
          </mxGeometry>
        </mxCell>
        <mxCell id="yKtU-O180s96aIhzvy2C-89" value="&lt;span style=&quot;color: rgb(50 , 50 , 50) ; font-size: 13px ; background-color: rgba(255 , 255 , 255 , 0.01)&quot;&gt;成功&lt;/span&gt;" style="text;html=1;align=center;verticalAlign=middle;resizable=0;points=[];autosize=1;" vertex="1" parent="1">
          <mxGeometry x="230" y="1540" width="40" height="20" as="geometry" />
        </mxCell>
        <mxCell id="yKtU-O180s96aIhzvy2C-91" value="" style="shape=flexArrow;endArrow=classic;html=1;fontColor=#000000;exitX=1.1;exitY=0.909;exitDx=0;exitDy=0;exitPerimeter=0;entryX=0;entryY=0.911;entryDx=0;entryDy=0;entryPerimeter=0;" edge="1" parent="1" source="yKtU-O180s96aIhzvy2C-1" target="yKtU-O180s96aIhzvy2C-3">
          <mxGeometry width="50" height="50" relative="1" as="geometry">
            <mxPoint x="350" y="1530" as="sourcePoint" />
            <mxPoint x="400" y="1480" as="targetPoint" />
          </mxGeometry>
        </mxCell>
        <mxCell id="yKtU-O180s96aIhzvy2C-92" value="&lt;span style=&quot;color: rgb(50 , 50 , 50) ; font-size: 13px ; background-color: rgba(255 , 255 , 255 , 0.01)&quot;&gt;通知手机设备校验失败&lt;/span&gt;" style="text;html=1;align=left;verticalAlign=middle;resizable=0;points=[];autosize=1;" vertex="1" parent="1">
          <mxGeometry x="395" y="1470" width="150" height="20" as="geometry" />
        </mxCell>
        <mxCell id="yKtU-O180s96aIhzvy2C-93" value="&lt;span style=&quot;color: rgb(50 , 50 , 50) ; font-size: 13px ; background-color: rgba(255 , 255 , 255 , 0.01)&quot;&gt;通知手机设备已经走通校验流程&lt;/span&gt;" style="text;html=1;align=left;verticalAlign=middle;resizable=0;points=[];autosize=1;" vertex="1" parent="1">
          <mxGeometry x="400" y="1540" width="200" height="20" as="geometry" />
        </mxCell>
      </root>
    </mxGraphModel>
  </diagram>
</mxfile>
